{
  "source": "C:\\Users\\Peter\\Desktop\\stuff\\MIUN\\quantitative_research\\video_compression\\videos\\HEVC_CLASS_B\\ParkScene_1920x1080_24.y4m",
  "output": "C:\\Users\\Peter\\Desktop\\stuff\\MIUN\\quantitative_research\\video_compression\\compressed_videos\\HEVC_CLASS_B\\av1\\2.5\\ParkScene_1920x1080_24_av1.mkv",
  "codec": "av1",
  "ok": "Input #0, yuv4mpegpipe, from 'C:\\Users\\Peter\\Desktop\\stuff\\MIUN\\quantitative_research\\video_compression\\videos\\HEVC_CLASS_B\\ParkScene_1920x1080_24.y4m':\n  Duration: 00:00:10.00, start: 0.000000, bitrate: 597198 kb/s\n  Stream #0:0: Video: rawvideo (I420 / 0x30323449), yuv420p(progressive), 1920x1080, 24 fps, 24 tbr, 24 tbn\n[out#0/matroska @ 00000208e52f8ec0] Codec AVOption b:a (set bitrate (in bits/s)) has not been used for any stream. The most likely reason is either wrong type (e.g. a video option with no video streams) or that it is a private option of some decoder which was not actually used for any stream.\nStream mapping:\n  Stream #0:0 -> #0:0 (rawvideo (native) -> av1 (libsvtav1))\nPress [q] to stop, [?] for help\nSvt[info]: -------------------------------------------\nSvt[info]: SVT [version]:\tSVT-AV1 Encoder Lib v3.1.0-19-g6ecfe8ec\nSvt[info]: SVT [build]  :\tGCC 15.2.0\t 64 bit\nSvt[info]: LIB Build date: Aug 17 2025 11:37:13\nSvt[info]: -------------------------------------------\n[libsvtav1 @ 00000208e52fc080] Specified chroma sample location center is unsupported on the AV1 bit stream level. Usage of a container that allows passing this information - such as Matroska - is recommended.\nSvt[info]: Level of Parallelism: 5\nSvt[info]: Number of PPCS 93\nSvt[info]: [asm level on system : up to avx2]\nSvt[info]: [asm level selected : up to avx2]\nSvt[info]: -------------------------------------------\nSvt[info]: SVT [config]: main profile\ttier (auto)\tlevel (auto)\nSvt[info]: SVT [config]: width / height / fps numerator / fps denominator \t\t: 1920 / 1080 / 24 / 1\nSvt[info]: SVT [config]: bit-depth / color format \t\t\t\t\t: 8 / YUV420\nSvt[info]: SVT [config]: preset / tune / pred struct \t\t\t\t\t: 4 / PSNR / random access\nSvt[info]: SVT [config]: gop size / mini-gop size / key-frame type \t\t\t: 161 / 16 / key frame\nSvt[info]: SVT [config]: BRC mode / target bitrate (kbps)\t\t\t\t: VBR / 2500 \nSvt[info]: SVT [config]: AQ mode / Variance Boost \t\t\t\t\t: 2 / 0\nSvt[info]: SVT [config]: sharpness / luminance-based QP bias \t\t\t\t: 0 / 0\nSvt[info]: SVT [config]: QP scale compress strength \t\t\t\t\t: 0\nSvt[info]: -------------------------------------------\nOutput #0, matroska, to 'C:\\Users\\Peter\\Desktop\\stuff\\MIUN\\quantitative_research\\video_compression\\compressed_videos\\HEVC_CLASS_B\\av1\\2.5\\ParkScene_1920x1080_24_av1.mkv':\n  Metadata:\n    encoder         : Lavf62.3.100\n  Stream #0:0: Video: av1 (AV01 / 0x31305641), yuv420p(tv, progressive), 1920x1080, q=2-31, 2500 kb/s, 24 fps, 1k tbn\n    Metadata:\n      encoder         : Lavc62.11.100 libsvtav1\n    Side data:\n      cpb: bitrate max/min/avg: 0/0/2500000 buffer size: 2500000 vbv_delay: N/A\nframe=    0 fps=0.0 q=0.0 size=       0KiB time=N/A bitrate=N/A speed=N/A elapsed=0:00:02.41    \nframe=    0 fps=0.0 q=0.0 size=       0KiB time=N/A bitrate=N/A speed=N/A elapsed=0:00:03.85    \nframe=    0 fps=0.0 q=0.0 size=       0KiB time=N/A bitrate=N/A speed=N/A elapsed=0:00:04.38    \nframe=    0 fps=0.0 q=0.0 size=       0KiB time=N/A bitrate=N/A speed=N/A elapsed=0:00:04.96    \nframe=    0 fps=0.0 q=0.0 size=       0KiB time=N/A bitrate=N/A speed=N/A elapsed=0:00:05.48    \nframe=    0 fps=0.0 q=0.0 size=       0KiB time=N/A bitrate=N/A speed=N/A elapsed=0:00:06.03    \nframe=    0 fps=0.0 q=0.0 size=       0KiB time=N/A bitrate=N/A speed=N/A elapsed=0:00:06.54    \nframe=    0 fps=0.0 q=0.0 size=       0KiB time=N/A bitrate=N/A speed=N/A elapsed=0:00:07.06    \nframe=    0 fps=0.0 q=0.0 size=       0KiB time=N/A bitrate=N/A speed=N/A elapsed=0:00:07.57    \nframe=    0 fps=0.0 q=0.0 size=       0KiB time=N/A bitrate=N/A speed=N/A elapsed=0:00:08.15    \nframe=    0 fps=0.0 q=0.0 size=       0KiB time=N/A bitrate=N/A speed=N/A elapsed=0:00:08.67    \nframe=    0 fps=0.0 q=0.0 size=       0KiB time=N/A bitrate=N/A speed=N/A elapsed=0:00:09.26    \nframe=    0 fps=0.0 q=0.0 size=       0KiB time=N/A bitrate=N/A speed=N/A elapsed=0:00:09.83    \nframe=    0 fps=0.0 q=0.0 size=       0KiB time=N/A bitrate=N/A speed=N/A elapsed=0:00:10.37    \nframe=    0 fps=0.0 q=0.0 size=       0KiB time=N/A bitrate=N/A speed=N/A elapsed=0:00:10.91    \nframe=    0 fps=0.0 q=0.0 size=       0KiB time=N/A bitrate=N/A speed=N/A elapsed=0:00:11.45    \nframe=    0 fps=0.0 q=0.0 size=       0KiB time=N/A bitrate=N/A speed=N/A elapsed=0:00:12.01    \nframe=    0 fps=0.0 q=0.0 size=       0KiB time=N/A bitrate=N/A speed=N/A elapsed=0:00:12.56    \nframe=    0 fps=0.0 q=0.0 size=       0KiB time=N/A bitrate=N/A speed=N/A elapsed=0:00:13.17    \nframe=    0 fps=0.0 q=0.0 size=       0KiB time=N/A bitrate=N/A speed=N/A elapsed=0:00:13.75    \nframe=    0 fps=0.0 q=0.0 size=       0KiB time=N/A bitrate=N/A speed=N/A elapsed=0:00:14.26    \nframe=    0 fps=0.0 q=0.0 size=       0KiB time=N/A bitrate=N/A speed=N/A elapsed=0:00:14.87    \nframe=    0 fps=0.0 q=0.0 size=       0KiB time=N/A bitrate=N/A speed=N/A elapsed=0:00:15.40    \nframe=    0 fps=0.0 q=0.0 size=       0KiB time=N/A bitrate=N/A speed=N/A elapsed=0:00:15.96    \nframe=    0 fps=0.0 q=0.0 size=       0KiB time=N/A bitrate=N/A speed=N/A elapsed=0:00:16.56    \nframe=    0 fps=0.0 q=0.0 size=       0KiB time=N/A bitrate=N/A speed=N/A elapsed=0:00:17.16    \nframe=    0 fps=0.0 q=0.0 size=       0KiB time=N/A bitrate=N/A speed=N/A elapsed=0:00:17.76    \nframe=    0 fps=0.0 q=0.0 size=       0KiB time=N/A bitrate=N/A speed=N/A elapsed=0:00:18.30    \nframe=    0 fps=0.0 q=0.0 size=       0KiB time=N/A bitrate=N/A speed=N/A elapsed=0:00:18.81    \nframe=    0 fps=0.0 q=0.0 size=       0KiB time=N/A bitrate=N/A speed=N/A elapsed=0:00:19.33    \nframe=    0 fps=0.0 q=0.0 size=       0KiB time=N/A bitrate=N/A speed=N/A elapsed=0:00:19.86    \nframe=    0 fps=0.0 q=0.0 size=       0KiB time=N/A bitrate=N/A speed=N/A elapsed=0:00:20.38    \nframe=    0 fps=0.0 q=0.0 size=       0KiB time=N/A bitrate=N/A speed=N/A elapsed=0:00:20.91    \nframe=    0 fps=0.0 q=0.0 size=       0KiB time=N/A bitrate=N/A speed=N/A elapsed=0:00:21.46    \nframe=    1 fps=0.0 q=13.0 size=       1KiB time=00:00:00.00 bitrate=N/A speed=   0x elapsed=0:00:22.03    \nframe=    1 fps=0.0 q=13.0 size=       1KiB time=00:00:00.00 bitrate=N/A speed=   0x elapsed=0:00:22.56    \nframe=    1 fps=0.0 q=13.0 size=       1KiB time=00:00:00.00 bitrate=N/A speed=   0x elapsed=0:00:23.07    \nframe=    1 fps=0.0 q=13.0 size=       1KiB time=00:00:00.00 bitrate=N/A speed=   0x elapsed=0:00:23.60    \nframe=    1 fps=0.0 q=13.0 size=       1KiB time=00:00:00.00 bitrate=N/A speed=   0x elapsed=0:00:24.18    \nframe=    1 fps=0.0 q=13.0 size=       1KiB time=00:00:00.00 bitrate=N/A speed=   0x elapsed=0:00:24.74    \nframe=    1 fps=0.0 q=13.0 size=       1KiB time=00:00:00.00 bitrate=N/A speed=   0x elapsed=0:00:25.33    \nframe=    1 fps=0.0 q=13.0 size=       1KiB time=00:00:00.00 bitrate=N/A speed=   0x elapsed=0:00:25.84    \nframe=    1 fps=0.0 q=13.0 size=       1KiB time=00:00:00.00 bitrate=N/A speed=   0x elapsed=0:00:26.43    \nframe=    1 fps=0.0 q=13.0 size=       1KiB time=00:00:00.00 bitrate=N/A speed=   0x elapsed=0:00:26.95    \nframe=    1 fps=0.0 q=13.0 size=       1KiB time=00:00:00.00 bitrate=N/A speed=   0x elapsed=0:00:27.49    \nframe=    1 fps=0.0 q=13.0 size=       1KiB time=00:00:00.00 bitrate=N/A speed=   0x elapsed=0:00:28.03    \nframe=    1 fps=0.0 q=13.0 size=       1KiB time=00:00:00.00 bitrate=N/A speed=   0x elapsed=0:00:28.55    \nframe=    1 fps=0.0 q=13.0 size=       1KiB time=00:00:00.00 bitrate=N/A speed=   0x elapsed=0:00:29.11    \nframe=    1 fps=0.0 q=13.0 size=       1KiB time=00:00:00.00 bitrate=N/A speed=   0x elapsed=0:00:29.67    \nframe=    1 fps=0.0 q=13.0 size=       1KiB time=00:00:00.00 bitrate=N/A speed=   0x elapsed=0:00:30.25    \nframe=    2 fps=0.1 q=40.0 size=       1KiB time=00:00:00.04 bitrate= 107.9kbits/s speed=0.00135x elapsed=0:00:30.81    \nframe=    3 fps=0.1 q=37.0 size=       1KiB time=00:00:00.08 bitrate=  54.0kbits/s speed=0.00265x elapsed=0:00:31.38    \nframe=    3 fps=0.1 q=37.0 size=       1KiB time=00:00:00.08 bitrate=  54.0kbits/s speed=0.00261x elapsed=0:00:31.95    \nframe=    4 fps=0.1 q=40.0 size=       1KiB time=00:00:00.12 bitrate=  36.0kbits/s speed=0.00384x elapsed=0:00:32.54    \nframe=    5 fps=0.2 q=35.0 size=       1KiB time=00:00:00.16 bitrate=  27.0kbits/s speed=0.00503x elapsed=0:00:33.14    \nframe=    6 fps=0.2 q=36.0 size=       1KiB time=00:00:00.20 bitrate=  21.6kbits/s speed=0.00618x elapsed=0:00:33.73    \nframe=    6 fps=0.2 q=36.0 size=       1KiB time=00:00:00.20 bitrate=  21.6kbits/s speed=0.00608x elapsed=0:00:34.27    \nframe=    7 fps=0.2 q=36.0 size=       1KiB time=00:00:00.25 bitrate=  18.0kbits/s speed=0.00718x elapsed=0:00:34.81    \nframe=    7 fps=0.2 q=36.0 size=       1KiB time=00:00:00.25 bitrate=  18.0kbits/s speed=0.00707x elapsed=0:00:35.36    \nframe=    8 fps=0.2 q=36.0 size=       1KiB time=00:00:00.25 bitrate=  18.0kbits/s speed=0.00696x elapsed=0:00:35.90    \nframe=    9 fps=0.2 q=31.0 size=       1KiB time=00:00:00.33 bitrate=  13.5kbits/s speed=0.00913x elapsed=0:00:36.51    \nframe=   10 fps=0.3 q=35.0 size=       1KiB time=00:00:00.37 bitrate=  12.0kbits/s speed=0.0101x elapsed=0:00:37.07    \nframe=   11 fps=0.3 q=36.0 size=       1KiB time=00:00:00.41 bitrate=  10.8kbits/s speed=0.0111x elapsed=0:00:37.64    \nframe=   12 fps=0.3 q=35.0 size=       1KiB time=00:00:00.45 bitrate=   9.8kbits/s speed=0.012x elapsed=0:00:38.21    \nframe=   14 fps=0.4 q=33.0 size=       1KiB time=00:00:00.54 bitrate=   8.3kbits/s speed=0.014x elapsed=0:00:38.81    \nframe=   15 fps=0.4 q=34.0 size=       1KiB time=00:00:00.58 bitrate=   7.7kbits/s speed=0.0148x elapsed=0:00:39.40    \nframe=   16 fps=0.4 q=33.0 size=       1KiB time=00:00:00.58 bitrate=   7.7kbits/s speed=0.0146x elapsed=0:00:39.98    \nframe=   16 fps=0.4 q=33.0 size=       1KiB time=00:00:00.62 bitrate=   7.2kbits/s speed=0.0154x elapsed=0:00:40.56    \nframe=   17 fps=0.4 q=20.0 size=       1KiB time=00:00:00.66 bitrate=   6.7kbits/s speed=0.0162x elapsed=0:00:41.16    \nframe=   17 fps=0.4 q=20.0 size=       1KiB time=00:00:00.66 bitrate=   6.7kbits/s speed=0.0159x elapsed=0:00:41.80    \nframe=   18 fps=0.4 q=34.0 size=       1KiB time=00:00:00.70 bitrate=   6.3kbits/s speed=0.0167x elapsed=0:00:42.34    \nframe=   19 fps=0.4 q=36.0 size=       1KiB time=00:00:00.75 bitrate=   6.0kbits/s speed=0.0175x elapsed=0:00:42.92    \nframe=   19 fps=0.4 q=36.0 size=       1KiB time=00:00:00.75 bitrate=   6.0kbits/s speed=0.0172x elapsed=0:00:43.56    \nframe=   21 fps=0.5 q=35.0 size=       1KiB time=00:00:00.83 bitrate=   5.4kbits/s speed=0.0189x elapsed=0:00:44.08    \nframe=   22 fps=0.5 q=34.0 size=       1KiB time=00:00:00.87 bitrate=   5.1kbits/s speed=0.0196x elapsed=0:00:44.62    \nframe=   22 fps=0.5 q=34.0 size=       1KiB time=00:00:00.87 bitrate=   5.1kbits/s speed=0.0194x elapsed=0:00:45.16    \nframe=   22 fps=0.5 q=34.0 size=       1KiB time=00:00:00.87 bitrate=   5.1kbits/s speed=0.0191x elapsed=0:00:45.71    \nframe=   23 fps=0.5 q=36.0 size=       1KiB time=00:00:00.91 bitrate=   4.9kbits/s speed=0.0198x elapsed=0:00:46.30    \nframe=   24 fps=0.5 q=34.0 size=       1KiB time=00:00:00.95 bitrate=   4.7kbits/s speed=0.0205x elapsed=0:00:46.84    \nframe=   25 fps=0.5 q=32.0 size=       1KiB time=00:00:00.95 bitrate=   4.7kbits/s speed=0.0202x elapsed=0:00:47.40    \nframe=   26 fps=0.5 q=34.0 size=       1KiB time=00:00:01.00 bitrate=   4.5kbits/s speed=0.0208x elapsed=0:00:48.01    \nframe=   26 fps=0.5 q=34.0 size=       1KiB time=00:00:01.04 bitrate=   4.3kbits/s speed=0.0214x elapsed=0:00:48.59    \nframe=   28 fps=0.6 q=34.0 size=       1KiB time=00:00:01.08 bitrate=   4.2kbits/s speed=0.022x elapsed=0:00:49.17    \nframe=   28 fps=0.6 q=34.0 size=       1KiB time=00:00:01.12 bitrate=   4.0kbits/s speed=0.0226x elapsed=0:00:49.71    \nframe=   30 fps=0.6 q=35.0 size=       1KiB time=00:00:01.20 bitrate=   3.7kbits/s speed=0.024x elapsed=0:00:50.27    \nframe=   31 fps=0.6 q=36.0 size=       1KiB time=00:00:01.25 bitrate=   3.6kbits/s speed=0.0246x elapsed=0:00:50.84    \nframe=   32 fps=0.6 q=35.0 size=       1KiB time=00:00:01.29 bitrate=   3.5kbits/s speed=0.0251x elapsed=0:00:51.36    \nframe=   32 fps=0.6 q=35.0 size=       1KiB time=00:00:01.29 bitrate=   3.5kbits/s speed=0.0249x elapsed=0:00:51.88    \nframe=   33 fps=0.6 q=20.0 size=       1KiB time=00:00:01.33 bitrate=   3.4kbits/s speed=0.0254x elapsed=0:00:52.43    \nframe=   34 fps=0.6 q=35.0 size=       1KiB time=00:00:01.37 bitrate=   3.3kbits/s speed=0.0259x elapsed=0:00:52.98    \nframe=   35 fps=0.7 q=35.0 size=       1KiB time=00:00:01.41 bitrate=   3.2kbits/s speed=0.0265x elapsed=0:00:53.53    \nframe=   36 fps=0.7 q=35.0 size=       1KiB time=00:00:01.45 bitrate=   3.1kbits/s speed=0.0269x elapsed=0:00:54.16    \nframe=   37 fps=0.7 q=35.0 size=       1KiB time=00:00:01.50 bitrate=   3.0kbits/s speed=0.0274x elapsed=0:00:54.73    \nframe=   38 fps=0.7 q=35.0 size=       1KiB time=00:00:01.54 bitrate=   2.9kbits/s speed=0.0279x elapsed=0:00:55.27    \nframe=   38 fps=0.7 q=35.0 size=       1KiB time=00:00:01.54 bitrate=   2.9kbits/s speed=0.0276x elapsed=0:00:55.79    \nframe=   40 fps=0.7 q=35.0 size=       1KiB time=00:00:01.62 bitrate=   2.8kbits/s speed=0.0289x elapsed=0:00:56.31    \nframe=   40 fps=0.7 q=35.0 size=       1KiB time=00:00:01.62 bitrate=   2.8kbits/s speed=0.0286x elapsed=0:00:56.82    \nframe=   41 fps=0.7 q=32.0 size=       1KiB time=00:00:01.66 bitrate=   2.7kbits/s speed=0.0291x elapsed=0:00:57.35    \nframe=   43 fps=0.7 q=36.0 size=       1KiB time=00:00:01.75 bitrate=   2.6kbits/s speed=0.0302x elapsed=0:00:57.90    \nframe=   44 fps=0.8 q=37.0 size=       1KiB time=00:00:01.79 bitrate=   2.5kbits/s speed=0.0307x elapsed=0:00:58.42    \nframe=   45 fps=0.8 q=35.0 size=       1KiB time=00:00:01.83 bitrate=   2.5kbits/s speed=0.0311x elapsed=0:00:59.03    \nframe=   46 fps=0.8 q=36.0 size=       1KiB time=00:00:01.87 bitrate=   2.4kbits/s speed=0.0315x elapsed=0:00:59.57    \nframe=   48 fps=0.8 q=36.0 size=       1KiB time=00:00:01.95 bitrate=   2.3kbits/s speed=0.0325x elapsed=0:01:00.17    \nframe=   48 fps=0.8 q=36.0 size=       1KiB time=00:00:01.95 bitrate=   2.3kbits/s speed=0.0322x elapsed=0:01:00.75    \nframe=   50 fps=0.8 q=38.0 size=       1KiB time=00:00:02.04 bitrate=   2.2kbits/s speed=0.0333x elapsed=0:01:01.35    \nframe=   51 fps=0.8 q=36.0 size=       1KiB time=00:00:02.08 bitrate=   2.2kbits/s speed=0.0336x elapsed=0:01:01.92    \nframe=   51 fps=0.8 q=36.0 size=       1KiB time=00:00:02.08 bitrate=   2.2kbits/s speed=0.0334x elapsed=0:01:02.44    \nframe=   52 fps=0.8 q=38.0 size=       1KiB time=00:00:02.12 bitrate=   2.1kbits/s speed=0.0337x elapsed=0:01:03.05    \nframe=   54 fps=0.8 q=38.0 size=       1KiB time=00:00:02.20 bitrate=   2.0kbits/s speed=0.0347x elapsed=0:01:03.62    \nframe=   55 fps=0.9 q=37.0 size=       1KiB time=00:00:02.25 bitrate=   2.0kbits/s speed=0.035x elapsed=0:01:04.21    \nframe=   55 fps=0.8 q=37.0 size=       1KiB time=00:00:02.25 bitrate=   2.0kbits/s speed=0.0347x elapsed=0:01:04.82    \nframe=   55 fps=0.8 q=37.0 size=       1KiB time=00:00:02.25 bitrate=   2.0kbits/s speed=0.0343x elapsed=0:01:05.53    \nframe=   56 fps=0.8 q=38.0 size=       1KiB time=00:00:02.29 bitrate=   2.0kbits/s speed=0.0347x elapsed=0:01:06.12    \nframe=   57 fps=0.9 q=31.0 size=       1KiB time=00:00:02.33 bitrate=   1.9kbits/s speed=0.035x elapsed=0:01:06.70    \nframe=   58 fps=0.9 q=39.0 size=       1KiB time=00:00:02.37 bitrate=   1.9kbits/s speed=0.0353x elapsed=0:01:07.28    \nframe=   59 fps=0.9 q=37.0 size=       1KiB time=00:00:02.41 bitrate=   1.9kbits/s speed=0.0356x elapsed=0:01:07.84    \nframe=   59 fps=0.9 q=37.0 size=       1KiB time=00:00:02.41 bitrate=   1.9kbits/s speed=0.0353x elapsed=0:01:08.39    \nframe=   60 fps=0.9 q=36.0 size=       1KiB time=00:00:02.45 bitrate=   1.8kbits/s speed=0.0356x elapsed=0:01:08.96    \nframe=   62 fps=0.9 q=38.0 size=       1KiB time=00:00:02.50 bitrate=   1.8kbits/s speed=0.0359x elapsed=0:01:09.54    \nframe=   63 fps=0.9 q=36.0 size=       1KiB time=00:00:02.58 bitrate=   1.7kbits/s speed=0.0368x elapsed=0:01:10.14    \nframe=   64 fps=0.9 q=38.0 size=       1KiB time=00:00:02.62 bitrate=   1.7kbits/s speed=0.0371x elapsed=0:01:10.73    \nframe=   65 fps=0.9 q=20.0 size=       1KiB time=00:00:02.66 bitrate=   1.7kbits/s speed=0.0374x elapsed=0:01:11.35    \nframe=   66 fps=0.9 q=39.0 size=       1KiB time=00:00:02.70 bitrate=   1.7kbits/s speed=0.0376x elapsed=0:01:12.00    \nframe=   67 fps=0.9 q=38.0 size=       1KiB time=00:00:02.75 bitrate=   1.6kbits/s speed=0.0379x elapsed=0:01:12.60    \nframe=   68 fps=0.9 q=39.0 size=       1KiB time=00:00:02.79 bitrate=   1.6kbits/s speed=0.0382x elapsed=0:01:13.14    \nframe=   69 fps=0.9 q=36.0 size=       1KiB time=00:00:02.83 bitrate=   1.6kbits/s speed=0.0384x elapsed=0:01:13.70    \nframe=   70 fps=0.9 q=39.0 size=       1KiB time=00:00:02.87 bitrate=   1.6kbits/s speed=0.0387x elapsed=0:01:14.26    \nframe=   71 fps=0.9 q=38.0 size=       1KiB time=00:00:02.91 bitrate=   1.5kbits/s speed=0.039x elapsed=0:01:14.80    \nframe=   71 fps=0.9 q=38.0 size=       1KiB time=00:00:02.91 bitrate=   1.5kbits/s speed=0.0387x elapsed=0:01:15.35    \nframe=   72 fps=0.9 q=39.0 size=       1KiB time=00:00:02.95 bitrate=   1.5kbits/s speed=0.039x elapsed=0:01:15.90    \nframe=   75 fps=1.0 q=38.0 size=       1KiB time=00:00:03.08 bitrate=   1.5kbits/s speed=0.0403x elapsed=0:01:16.50    \nframe=   75 fps=1.0 q=38.0 size=       1KiB time=00:00:03.08 bitrate=   1.5kbits/s speed=0.04x elapsed=0:01:17.07    \nframe=   76 fps=1.0 q=39.0 size=       1KiB time=00:00:03.12 bitrate=   1.4kbits/s speed=0.0403x elapsed=0:01:17.62    \nframe=   77 fps=1.0 q=36.0 size=       1KiB time=00:00:03.16 bitrate=   1.4kbits/s speed=0.0405x elapsed=0:01:18.21    \nframe=   79 fps=1.0 q=36.0 size=       1KiB time=00:00:03.25 bitrate=   1.4kbits/s speed=0.0412x elapsed=0:01:18.82    \nframe=   79 fps=1.0 q=36.0 size=       1KiB time=00:00:03.25 bitrate=   1.4kbits/s speed=0.0409x elapsed=0:01:19.37    \nframe=   81 fps=1.0 q=21.0 size=       1KiB time=00:00:03.33 bitrate=   1.3kbits/s speed=0.0417x elapsed=0:01:19.94    \nframe=   82 fps=1.0 q=39.0 size=       1KiB time=00:00:03.37 bitrate=   1.3kbits/s speed=0.0419x elapsed=0:01:20.48    \nframe=   82 fps=1.0 q=39.0 size=       1KiB time=00:00:03.37 bitrate=   1.3kbits/s speed=0.0417x elapsed=0:01:21.01    \nframe=   84 fps=1.0 q=39.0 size=       1KiB time=00:00:03.45 bitrate=   1.3kbits/s speed=0.0424x elapsed=0:01:21.54    \nframe=   85 fps=1.0 q=36.0 size=       1KiB time=00:00:03.50 bitrate=   1.3kbits/s speed=0.0426x elapsed=0:01:22.09    \nframe=   86 fps=1.0 q=39.0 size=       1KiB time=00:00:03.54 bitrate=   1.3kbits/s speed=0.0429x elapsed=0:01:22.62    \nframe=   86 fps=1.0 q=39.0 size=       1KiB time=00:00:03.54 bitrate=   1.3kbits/s speed=0.0426x elapsed=0:01:23.14    \nframe=   86 fps=1.0 q=39.0 size=       1KiB time=00:00:03.54 bitrate=   1.3kbits/s speed=0.0423x elapsed=0:01:23.66    \nframe=   87 fps=1.0 q=38.0 size=       1KiB time=00:00:03.58 bitrate=   1.3kbits/s speed=0.0426x elapsed=0:01:24.18    \nframe=   87 fps=1.0 q=38.0 size=       1KiB time=00:00:03.58 bitrate=   1.3kbits/s speed=0.0423x elapsed=0:01:24.75    \nframe=   88 fps=1.0 q=39.0 size=       1KiB time=00:00:03.62 bitrate=   1.2kbits/s speed=0.0425x elapsed=0:01:25.27    \nframe=   90 fps=1.0 q=38.0 size=       1KiB time=00:00:03.70 bitrate=   1.2kbits/s speed=0.0432x elapsed=0:01:25.79    \nframe=   91 fps=1.1 q=36.0 size=       1KiB time=00:00:03.75 bitrate=   1.2kbits/s speed=0.0434x elapsed=0:01:26.37    \nframe=   92 fps=1.1 q=36.0 size=       1KiB time=00:00:03.79 bitrate=   1.2kbits/s speed=0.0436x elapsed=0:01:26.95    \nframe=   93 fps=1.1 q=33.0 size=       1KiB time=00:00:03.83 bitrate=   1.2kbits/s speed=0.0438x elapsed=0:01:27.51    \nframe=   95 fps=1.1 q=36.0 size=       1KiB time=00:00:03.91 bitrate=   1.1kbits/s speed=0.0445x elapsed=0:01:28.07    \nframe=   96 fps=1.1 q=38.0 size=       1KiB time=00:00:03.95 bitrate=   1.1kbits/s speed=0.0447x elapsed=0:01:28.61    \nframe=   97 fps=1.1 q=22.0 size=       1KiB time=00:00:04.00 bitrate=   1.1kbits/s speed=0.0448x elapsed=0:01:29.20    \nframe=   98 fps=1.1 q=39.0 size=       1KiB time=00:00:04.04 bitrate=   1.1kbits/s speed=0.045x elapsed=0:01:29.75    \nframe=   99 fps=1.1 q=38.0 size=       1KiB time=00:00:04.08 bitrate=   1.1kbits/s speed=0.0452x elapsed=0:01:30.32    \nframe=  102 fps=1.1 q=39.0 size=       1KiB time=00:00:04.20 bitrate=   1.1kbits/s speed=0.0463x elapsed=0:01:30.86    \nframe=  102 fps=1.1 q=39.0 size=       1KiB time=00:00:04.20 bitrate=   1.1kbits/s speed=0.0461x elapsed=0:01:31.37    \nframe=  104 fps=1.1 q=31.0 size=       1KiB time=00:00:04.25 bitrate=   1.1kbits/s speed=0.0463x elapsed=0:01:31.88    \nframe=  106 fps=1.1 q=38.0 size=       1KiB time=00:00:04.37 bitrate=   1.0kbits/s speed=0.0473x elapsed=0:01:32.41    \nframe=  107 fps=1.2 q=36.0 size=       1KiB time=00:00:04.41 bitrate=   1.0kbits/s speed=0.0475x elapsed=0:01:32.98    \nframe=  108 fps=1.2 q=38.0 size=       1KiB time=00:00:04.45 bitrate=   1.0kbits/s speed=0.0477x elapsed=0:01:33.51    \nframe=  109 fps=1.2 q=32.0 size=       1KiB time=00:00:04.50 bitrate=   1.0kbits/s speed=0.0478x elapsed=0:01:34.06    \nframe=  111 fps=1.2 q=35.0 size=       1KiB time=00:00:04.58 bitrate=   1.0kbits/s speed=0.0484x elapsed=0:01:34.63    \nframe=  112 fps=1.2 q=37.0 size=       1KiB time=00:00:04.58 bitrate=   1.0kbits/s speed=0.0481x elapsed=0:01:35.21    \nframe=  113 fps=1.2 q=23.0 size=       1KiB time=00:00:04.66 bitrate=   1.0kbits/s speed=0.0487x elapsed=0:01:35.81    \nframe=  114 fps=1.2 q=38.0 size=       1KiB time=00:00:04.70 bitrate=   1.0kbits/s speed=0.0489x elapsed=0:01:36.35    \nframe=  115 fps=1.2 q=37.0 size=       1KiB time=00:00:04.75 bitrate=   0.9kbits/s speed=0.049x elapsed=0:01:36.88    \nframe=  117 fps=1.2 q=35.0 size=       1KiB time=00:00:04.83 bitrate=   0.9kbits/s speed=0.0496x elapsed=0:01:37.42    \nframe=  118 fps=1.2 q=38.0 size=       1KiB time=00:00:04.87 bitrate=   0.9kbits/s speed=0.0498x elapsed=0:01:37.94    \nframe=  119 fps=1.2 q=37.0 size=       1KiB time=00:00:04.91 bitrate=   0.9kbits/s speed=0.0499x elapsed=0:01:38.47    \nframe=  120 fps=1.2 q=31.0 size=       1KiB time=00:00:04.95 bitrate=   0.9kbits/s speed=0.0501x elapsed=0:01:39.01    \nframe=  123 fps=1.2 q=36.0 size=    1536KiB time=00:00:05.04 bitrate=2495.8kbits/s speed=0.0506x elapsed=0:01:39.58    \nframe=  124 fps=1.2 q=35.0 size=    1536KiB time=00:00:05.08 bitrate=2475.3kbits/s speed=0.0507x elapsed=0:01:40.31    \nframe=  125 fps=1.2 q=32.0 size=    1536KiB time=00:00:05.12 bitrate=2455.2kbits/s speed=0.0507x elapsed=0:01:41.08    \nframe=  127 fps=1.2 q=35.0 size=    1536KiB time=00:00:05.25 bitrate=2396.7kbits/s speed=0.0515x elapsed=0:01:42.01    \nframe=  130 fps=1.3 q=39.0 size=    1536KiB time=00:00:05.29 bitrate=2377.9kbits/s speed=0.0514x elapsed=0:01:43.01    \nframe=  131 fps=1.3 q=38.0 size=    1536KiB time=00:00:05.41 bitrate=2323.0kbits/s speed=0.0522x elapsed=0:01:43.82    \nframe=  133 fps=1.3 q=36.0 size=    1536KiB time=00:00:05.45 bitrate=2305.3kbits/s speed=0.0521x elapsed=0:01:44.70    \nframe=  134 fps=1.3 q=37.0 size=    1536KiB time=00:00:05.54 bitrate=2270.6kbits/s speed=0.0525x elapsed=0:01:45.48    \nframe=  136 fps=1.3 q=37.0 size=    1536KiB time=00:00:05.62 bitrate=2237.0kbits/s speed=0.0529x elapsed=0:01:46.26    \nframe=  140 fps=1.3 q=39.0 size=    1536KiB time=00:00:05.79 bitrate=2172.6kbits/s speed=0.0541x elapsed=0:01:46.99    \nframe=  141 fps=1.3 q=34.0 size=    1536KiB time=00:00:05.83 bitrate=2157.1kbits/s speed=0.0541x elapsed=0:01:47.76    \nframe=  145 fps=1.3 q=23.0 size=    1536KiB time=00:00:06.00 bitrate=2097.2kbits/s speed=0.0552x elapsed=0:01:48.70    \nframe=  145 fps=1.3 q=23.0 size=    1536KiB time=00:00:06.00 bitrate=2097.2kbits/s speed=0.0547x elapsed=0:01:49.60    \nframe=  149 fps=1.3 q=32.0 size=    1536KiB time=00:00:06.16 bitrate=2040.5kbits/s speed=0.0559x elapsed=0:01:50.38    \nframe=  151 fps=1.4 q=36.0 size=    1536KiB time=00:00:06.16 bitrate=2040.5kbits/s speed=0.0554x elapsed=0:01:51.21    \nframe=  153 fps=1.4 q=34.0 size=    1536KiB time=00:00:06.33 bitrate=1986.8kbits/s speed=0.0565x elapsed=0:01:52.18    \nframe=  153 fps=1.4 q=34.0 size=    1536KiB time=00:00:06.33 bitrate=1986.8kbits/s speed=0.056x elapsed=0:01:53.01    \nframe=  155 fps=1.4 q=37.0 size=    1536KiB time=00:00:06.33 bitrate=1986.8kbits/s speed=0.0556x elapsed=0:01:53.99    \nframe=  157 fps=1.4 q=33.0 size=    1536KiB time=00:00:06.50 bitrate=1935.8kbits/s speed=0.0566x elapsed=0:01:54.93    \nframe=  159 fps=1.4 q=37.0 size=    1536KiB time=00:00:06.50 bitrate=1935.8kbits/s speed=0.0561x elapsed=0:01:55.81    \nframe=  170 fps=1.5 q=31.0 size=    1792KiB time=00:00:07.04 bitrate=2084.7kbits/s speed=0.0604x elapsed=0:01:56.64    \nframe=  170 fps=1.4 q=31.0 size=    1792KiB time=00:00:07.04 bitrate=2084.7kbits/s speed=0.06x elapsed=0:01:57.34    \nframe=  172 fps=1.5 q=38.0 size=    1792KiB time=00:00:07.12 bitrate=2060.4kbits/s speed=0.0604x elapsed=0:01:58.03    \nframe=  174 fps=1.5 q=36.0 size=    1792KiB time=00:00:07.20 bitrate=2036.5kbits/s speed=0.0608x elapsed=0:01:58.63    \nframe=  174 fps=1.5 q=36.0 size=    1792KiB time=00:00:07.20 bitrate=2036.5kbits/s speed=0.0604x elapsed=0:01:59.39    \nframe=  176 fps=1.5 q=35.0 size=    1792KiB time=00:00:07.29 bitrate=2013.3kbits/s speed=0.0607x elapsed=0:02:00.18    \nframe=  178 fps=1.5 q=21.0 size=    1792KiB time=00:00:07.37 bitrate=1990.5kbits/s speed=0.061x elapsed=0:02:00.99    \nframe=  180 fps=1.5 q=38.0 size=    1792KiB time=00:00:07.45 bitrate=1968.3kbits/s speed=0.0613x elapsed=0:02:01.65    \nframe=  182 fps=1.5 q=35.0 size=    1792KiB time=00:00:07.54 bitrate=1946.5kbits/s speed=0.0617x elapsed=0:02:02.26    \nframe=  186 fps=1.5 q=30.0 size=    1792KiB time=00:00:07.70 bitrate=1904.4kbits/s speed=0.0628x elapsed=0:02:02.80    \nframe=  186 fps=1.5 q=30.0 size=    1792KiB time=00:00:07.70 bitrate=1904.4kbits/s speed=0.0624x elapsed=0:02:03.45    \nframe=  186 fps=1.5 q=30.0 size=    1792KiB time=00:00:07.70 bitrate=1904.4kbits/s speed=0.0621x elapsed=0:02:04.13    \nframe=  190 fps=1.5 q=33.0 size=    1792KiB time=00:00:07.79 bitrate=1884.1kbits/s speed=0.0624x elapsed=0:02:04.84    \nframe=  190 fps=1.5 q=33.0 size=    1792KiB time=00:00:07.87 bitrate=1864.1kbits/s speed=0.0628x elapsed=0:02:05.42    \nframe=  192 fps=1.5 q=35.0 size=    1792KiB time=00:00:07.87 bitrate=1864.1kbits/s speed=0.0624x elapsed=0:02:06.12    \nframe=  194 fps=1.5 q=20.0 size=    1792KiB time=00:00:08.04 bitrate=1825.5kbits/s speed=0.0634x elapsed=0:02:06.83    \nframe=  198 fps=1.6 q=35.0 size=    1792KiB time=00:00:08.20 bitrate=1788.4kbits/s speed=0.0644x elapsed=0:02:07.46    \nframe=  200 fps=1.6 q=37.0 size=    1792KiB time=00:00:08.29 bitrate=1770.5kbits/s speed=0.0647x elapsed=0:02:08.09    \nframe=  202 fps=1.6 q=30.0 size=    1792KiB time=00:00:08.37 bitrate=1752.8kbits/s speed=0.0651x elapsed=0:02:08.71    \nframe=  202 fps=1.6 q=30.0 size=    1792KiB time=00:00:08.37 bitrate=1752.8kbits/s speed=0.0647x elapsed=0:02:09.34    \nframe=  202 fps=1.6 q=30.0 size=    1792KiB time=00:00:08.37 bitrate=1752.8kbits/s speed=0.0644x elapsed=0:02:10.09    \nframe=  206 fps=1.6 q=29.0 size=    1792KiB time=00:00:08.54 bitrate=1718.6kbits/s speed=0.0653x elapsed=0:02:10.78    \nframe=  206 fps=1.6 q=29.0 size=    1792KiB time=00:00:08.54 bitrate=1718.6kbits/s speed=0.065x elapsed=0:02:11.39    \nframe=  210 fps=1.6 q=20.0 size=    1792KiB time=00:00:08.70 bitrate=1685.7kbits/s speed=0.066x elapsed=0:02:12.00    \nframe=  214 fps=1.6 q=31.0 size=    1792KiB time=00:00:08.79 bitrate=1669.8kbits/s speed=0.0663x elapsed=0:02:12.53    \nframe=  216 fps=1.6 q=37.0 size=    1792KiB time=00:00:08.87 bitrate=1654.1kbits/s speed=0.0666x elapsed=0:02:13.21    \nframe=  218 fps=1.6 q=27.0 size=    1792KiB time=00:00:09.04 bitrate=1623.6kbits/s speed=0.0676x elapsed=0:02:13.83    \nframe=  218 fps=1.6 q=27.0 size=    1792KiB time=00:00:09.04 bitrate=1623.6kbits/s speed=0.0672x elapsed=0:02:14.45    \nframe=  220 fps=1.6 q=37.0 size=    1792KiB time=00:00:09.12 bitrate=1608.8kbits/s speed=0.0676x elapsed=0:02:14.99    \nframe=  222 fps=1.6 q=37.0 size=    1792KiB time=00:00:09.20 bitrate=1594.2kbits/s speed=0.0679x elapsed=0:02:15.67    \nframe=  232 fps=1.7 q=37.0 size=    1792KiB time=00:00:09.62 bitrate=1525.2kbits/s speed=0.0706x elapsed=0:02:16.37    \n[out#0/matroska @ 00000208e52f8ec0] video:3023KiB audio:0KiB subtitle:0KiB other streams:0KiB global headers:0KiB muxing overhead: 0.057180%\nframe=  240 fps=1.8 q=33.0 Lsize=    3025KiB time=00:00:09.95 bitrate=2488.2kbits/s speed=0.0729x elapsed=0:02:16.69    \n",
  "seconds": 138.0500464439392,
  "probe_out": {}
}